# xmcd CD database file
#
# Track frame offsets:
#	150
#	41261
#	67138
#	104587
#	133304
#	236723
#	263965
#	267775
#	314001
#
# Disc length: 4616 seconds
#
# Revision: 0
# Processed by: cddbd v1.5.1PL0 Copyright (c) Steve Scherf et al.
# Submitted via: CDex 1.50beta9
#
DISCID=8c120609
DTITLE=Albert Ayler - Holy Ghost CD6
DYEAR=2004
DGENRE=Jazz
TTITLE0=Truth Is Marching In - Omega
TTITLE1=Japan - Universal Indians
TTITLE2=Our Prayer
TTITLE3=Love Cry - Truth Is Marching In - Our Prayer
TTITLE4=Venus - Upper And Lower Egypt
TTITLE5=Untitled Blues
TTITLE6=Untitled Sermon
TTITLE7=Thank God For Women
TTITLE8=New Ghosts (Demo Fragments)
EXTD=YEAR: 2004
EXTT0=
EXTT1=
EXTT2=
EXTT3=
EXTT4=
EXTT5=
EXTT6=
EXTT7=
EXTT8=
PLAYORDER=
